HIERARCHY
ROOT HipCenter
{
    OFFSET 0.0 0.0 -0.0
    CHANNELS 6 Xposition Yposition Zposition Zrotation Xrotation Yrotation
    JOINT Spine
    {
        OFFSET 0.0 0.12102294713258743 0.0
        CHANNELS 3 Zrotation Xrotation Yrotation
        JOINT ShoulderCenter
        {
            OFFSET 0.0 0.3342655599117279 0.0
            CHANNELS 3 Zrotation Xrotation Yrotation
            JOINT LeftShoulder
            {
                OFFSET 0.1909063160419464 0.0 0.0
                CHANNELS 3 Zrotation Xrotation Yrotation
                JOINT LeftElbow
                {
                    OFFSET 0.29750585556030273 0.0 0.0
                    CHANNELS 3 Zrotation Xrotation Yrotation
                    JOINT LeftWrist
                    {
                        OFFSET 0.2960520386695862 0.0 0.0
                        CHANNELS 3 Zrotation Xrotation Yrotation
                        JOINT LeftHand
                        {
                            OFFSET 0.044107384979724884 0.0 0.0
                            CHANNELS 3 Zrotation Xrotation Yrotation
                            End Site
                            {
                                OFFSET 0.017642952501773834 0.0 0.0
                            }
                        }
                    }
                }
            }
            JOINT RightShoulder
            {
                OFFSET -0.1909063160419464 0.0 0.0
                CHANNELS 3 Zrotation Xrotation Yrotation
                JOINT RightElbow
                {
                    OFFSET -0.29750585556030273 0.0 0.0
                    CHANNELS 3 Zrotation Xrotation Yrotation
                    JOINT RightWrist
                    {
                        OFFSET -0.2960520386695862 0.0 0.0
                        CHANNELS 3 Zrotation Xrotation Yrotation
                        JOINT RightHand
                        {
                            OFFSET -0.044107384979724884 0.0 0.0
                            CHANNELS 3 Zrotation Xrotation Yrotation
                            End Site
                            {
                                OFFSET -0.017642952501773834 0.0 0.0
                            }
                        }
                    }
                }
            }
            End Site
            {
                OFFSET 0.0 0.1337062269449234 0.0
            }
        }
    }
    JOINT LeftHip
    {
        OFFSET 0.13972541689872742 0.0 0.0
        CHANNELS 3 Zrotation Xrotation Yrotation
        JOINT LeftKnee
        {
            OFFSET 0.0 -0.4064760208129883 0.0
            CHANNELS 3 Zrotation Xrotation Yrotation
            JOINT LeftAnkle
            {
                OFFSET 0.0 -0.44779008626937866 0.0
                CHANNELS 3 Zrotation Xrotation Yrotation
                JOINT LeftFoot
                {
                    OFFSET 0.0 -0.10071974992752075 0.0
                    CHANNELS 3 Zrotation Xrotation Yrotation
                    End Site
                    {
                        OFFSET 0.0 0.0 0.04028789699077606
                    }
                }
            }
        }
    }
    JOINT RightHip
    {
        OFFSET -0.13972541689872742 0.0 0.0
        CHANNELS 3 Zrotation Xrotation Yrotation
        JOINT RightKnee
        {
            OFFSET 0.0 -0.4064760208129883 0.0
            CHANNELS 3 Zrotation Xrotation Yrotation
            JOINT RightAnkle
            {
                OFFSET 0.0 -0.44779008626937866 0.0
                CHANNELS 3 Zrotation Xrotation Yrotation
                JOINT RightFoot
                {
                    OFFSET 0.0 -0.10071974992752075 0.0
                    CHANNELS 3 Zrotation Xrotation Yrotation
                    End Site
                    {
                        OFFSET 0.0 0.0 0.04028789699077606
                    }
                }
            }
        }
    }
}
MOTION
Frames: 8
Frame Time: 0.03333333333333333
0.5770000219345093 0.15800000727176666 -0.8489999771118164 0.9469674210001588 -5.662948875485751 0.51986958891887 -2.9219184156406213 -9.384529046097201 -0.26589209964851074 8.83613650828702e-09 3.0999029673858483e-07 2.634063421710505 117.87754908147159 46.708022502347255 -70.44692477365439 -9.007149038532088e-07 7.0477333081634405e-06 20.561626125516682 2.003883741055165e-06 -12.374238680524527 24.139745891937928 0.0 0.0 -9.54166404439055e-15 -110.92153879467249 57.21710057876287 70.40251230490897 3.078069487011443e-07 -4.494150628254934e-06 -19.45972064835391 -179.9999945152936 -72.09895528400376 149.61046102395426 0.0 7.95138670365879e-16 0.0 1.4672615548404806 3.5494538266138402 -34.315817151182266 -15.344077931473674 24.01880735000478 -18.193616642119746 123.11823041359582 -49.85325940775547 162.94745447382462 0.0 0.0 0.0 -0.9607350695568705 16.953401535495807 42.69920609673773 4.012875743491892 4.63920067377173 3.739561866356794 -108.82414077003158 -38.537785410462746 -158.43781352167483 -3.180554681463516e-15 7.95138670365879e-15 2.2069531490250793e-31
0.5770000219345093 0.15700000524520874 -0.8420000076293945 0.9469675760945008 -4.7238047482998695 0.49864849087037116 -2.9272607760275133 -9.948939673220865 -0.28120739675441725 1.2969868118814932e-07 4.163639719571905e-07 2.6445141418751623 118.10151261623542 46.845878354996344 -70.46688595384448 -2.2954028853411995e-06 1.2941221955148344e-06 20.690203208650328 1.0542417184957005e-06 -9.6287955905445 24.16529500748339 -8.827812596100317e-32 3.1805546814635168e-15 3.1805546814635168e-15 -110.1273709157986 56.57488897293854 69.53017988177243 3.1267978188237605e-06 -1.8506038348374651e-06 -19.55482101214129 -179.99998462920425 -72.83183528265947 149.09512016301974 0.0 0.0 0.0 1.4652813566972842 2.8862700853294294 -34.00179047603025 -15.41096247362492 24.325565328796177 -18.53270094400388 122.97367654820724 -49.77189709991206 162.9259294447974 6.3611093629270335e-15 -1.590277340731758e-15 6.3611093629270335e-15 -0.9686817795542443 16.320570827143356 42.59515124873467 4.1604854467669945 4.812742723144691 3.898753893626362 -109.63640768273795 -38.89162914210849 -159.00057289300696 -3.180554681463516e-15 -1.590277340731758e-15 -4.4139062980501586e-32
0.5770000219345093 0.15600000321865082 -0.8339999914169312 0.9469675073784228 -3.7821380752668468 0.45409147448824627 -2.9265231502398685 -10.186780654436296 -0.35518766581223293 -3.068887970008665e-08 -6.336507120355018e-07 2.7927254400073727 116.10314812210578 46.198948305738696 -68.48912210876998 1.7314712832808236e-06 1.3133210557685126e-06 19.987850020988834 -5.067150103290165e-06 -8.419327807160336 24.77721146421431 -6.3611093629270335e-15 3.1805546814635168e-15 -3.1805546814635168e-15 -109.20288156925719 56.14302049685446 68.24948755010439 3.5328952948569684e-06 -3.429162340989517e-07 -19.28452685921562 179.99998254680418 -71.9585115428367 149.58917179335612 -3.531125038440127e-31 6.361109362927035e-15 6.361109362927035e-15 1.4527979410861815 2.3701306982142563 -33.832570942814044 -15.444366656935372 24.47429981831405 -18.573905067755867 124.60459840252561 -49.38745986015748 164.22511561491822 0.0 0.0 0.0 -1.1286205774846423 15.96472832685062 43.23077128010425 4.1887896601568295 4.547172443336143 3.7345201976419706 -110.04205269787334 -38.43200402456006 -159.78588292038415 -3.1805546814635168e-15 4.770832022195275e-15 1.3241718894150476e-31
0.5770000219345093 0.1550000011920929 -0.824999988079071 0.9469675487574044 -3.3105041213981212 0.07736031149392418 -2.8593548889711298 -9.80547426749335 -0.25929420827373406 1.0656417986763696e-07 4.3171023287370685e-07 3.1632112628519393 116.47979713401584 46.46167116207304 -68.6318972713008 -3.140844853150979e-06 2.4235502358129263e-06 20.236194894650907 2.3269176352486557e-06 -8.510005812771462 24.287365062275946 8.827812596100317e-32 3.1805546814635176e-15 -3.1805546814635176e-15 -107.76449288228041 55.40908148247424 66.67813911199491 4.6608144446491124e-07 1.292958176087954e-06 -19.140086785401625 -179.99999242645072 -74.8963960231354 149.94056849103399 0.0 0.0 0.0 1.3031768449071157 2.466021594127757 -33.399894923438524 -15.206056098956093 24.63906994984546 -18.840647219027296 124.45719937035587 -49.38312971326854 164.24053950090743 4.4139062980501586e-32 -1.5902773407317584e-15 3.1805546814635168e-15 -1.2340585041954546 16.040061053626943 43.19317171873914 3.970933018277716 4.383857068165921 3.645216180596861 -109.85978811485036 -38.987602097732186 -159.6873714402953 -3.1805546814635168e-15 -1.5902773407317584e-15 -4.4139062980501586e-32
0.5770000219345093 0.15399999916553497 -0.8159999847412109 0.9469674570404483 -1.8931309890344301 -0.34547495532461214 -2.791638935562956 -10.369752783513139 -0.25975576168588477 -1.7030864069669567e-08 -6.242480914285912e-07 3.5128202130967643 118.03368921792259 47.064207237242734 -69.86809117702508 -1.5455867605909132e-06 -3.6238796590156152e-06 20.588690510386687 -3.007316964420971e-06 -8.451456192838984 24.67767139961552 8.827812596100317e-32 -3.1805546814635164e-15 3.1805546814635164e-15 -108.64365063141067 55.07194685051336 67.18388245182102 -5.858817637405763e-06 -1.4664731286254453e-06 -19.19643778577565 -179.99999997363884 -72.2899173792723 147.0409948832061 0.0 0.0 3.1805546814635164e-15 1.2895346979565738 1.6198002775336346 -33.021459967813904 -15.233154469631526 24.62645515488556 -18.892679488264765 124.27837165807694 -49.09481577439174 164.23245538269262 0.0 1.5902773407317584e-15 0.0 -1.1948481554053185 15.06131398525197 42.681650113601776 3.85744609917746 4.603326573107064 3.861079859061082 -110.19885887111825 -40.14175920456827 -159.66379287985725 6.361109362927035e-15 -6.361109362927035e-15 -6.361109362927035e-15
0.5770000219345093 0.15399999916553497 -0.8069999814033508 0.9469673725243316 -0.4734654736708623 -0.3787924266612342 -2.7938584010575775 -10.412418240300717 -0.2628365293262493 2.094287835778013e-07 -3.3088631249162395e-08 3.6788811987720025 118.41425731288402 47.126057360814734 -69.84163079415747 -1.5391455498048096e-07 -7.962770412073891e-08 20.60742216379107 1.1088058717448012e-06 -9.293763503823293 23.16863436846007 0.0 0.0 0.0 -107.29481132828396 54.499553314924256 65.8023665825395 -1.440412580125875e-06 -1.968601875495486e-07 -19.17970850026157 179.99999360338015 -74.91209158025207 149.16429921181347 0.0 0.0 -6.3611093629270335e-15 1.1536217669262732 0.761677728721447 -32.33706812327646 -14.666828093604238 24.635765044261568 -19.374143358408137 124.45732421793852 -48.66723698877658 164.98195667518448 -6.361109362927035e-15 1.7655625192200634e-31 -3.1805546814635176e-15 -1.1898201423728811 14.055223172959137 42.261331608597786 3.849158986631507 4.662266600886016 3.976854576351674 -109.30136849948269 -40.05683221386449 -159.37558971960271 -3.1805546814635164e-15 -1.5902773407317584e-15 3.1805546814635164e-15
0.5770000219345093 0.15299999713897705 -0.7979999780654907 0.9469675426791223 0.9468101794899367 -0.41189132110436655 -2.6119862420550923 -10.057749334407594 -0.2239104811357839 -1.2129887084983216e-07 -8.556260669463136e-07 3.8724712952400284 118.60231572785263 47.42054266612689 -69.63318900140906 -7.706257569612911e-06 5.247622314276081e-06 20.271364376173334 -1.2964276575779075e-06 -5.132768270347501 22.936544430599515 -1.7655625192200634e-31 3.1805546814635168e-15 6.3611093629270335e-15 -109.93623134695865 55.2428902830611 67.6744305064134 7.912969775001174e-07 -1.1333684648773074e-05 -19.357524609721736 -179.99999109474228 -74.82650832426839 147.57734816576163 3.531125038440127e-31 6.361109362927032e-15 -6.361109362927032e-15 1.1550689832156358 -0.23839017418786523 -31.569739089467102 -14.391136593735627 24.903971459958793 -19.820525051734098 123.68240757705559 -49.34482697117186 164.42383554293036 0.0 0.0 6.361109362927032e-15 -1.3360237661161192 13.801972031587399 42.41779734349763 3.1645015565321697 3.481774352007236 3.0288057229280883 -107.95026221919035 -41.2221714441754 -158.33831095800377 -3.1805546814635183e-15 6.361109362927035e-15 6.361109362927035e-15
0.5770000219345093 0.15399999916553497 -0.7900000214576721 0.946967532820329 3.7821381139240304 -0.08819029919628985 -2.6832376426448397 -10.819007733740515 -0.2533413259788524 1.1803205010320824e-07 2.2339322242720888e-07 4.079461551923434 117.63923952849105 46.50286926178681 -68.71693662999022 -3.4706520231910646e-06 -8.855885878438864e-07 20.234377446066816 -1.4777155639769725e-06 -4.524486333947909 22.92074283067573 0.0 0.0 0.0 -109.70333599712536 55.04083642136899 67.38719615473188 -2.4032956010207946e-07 -6.855378635991271e-06 -19.30983940684702 179.9999897902194 -74.32786878011973 149.27341499333485 6.361109362927033e-15 0.0 0.0 1.1597305443654131 -3.0796584742507136 -29.36354512687876 -13.490292625437121 25.82808583802483 -21.69997863170324 121.81380054802071 -49.68748437509122 163.83798250660706 6.361109362927032e-15 6.361109362927032e-15 3.1805546814635156e-15 -1.5340317475213303 13.755746246903303 43.15634964682541 -0.12498918886241653 -0.010052100438395214 -0.00961080432079643 -104.07809748807685 -43.225466275781436 -156.66563688710676 -3.1805546814635168e-15 4.770832022195275e-15 3.1805546814635168e-15
